<svg width="56" height="56" viewBox="0 0 56 56" fill="none" xmlns="http://www.w3.org/2000/svg">
<rect x="0.5" y="0.5" width="55" height="55" stroke="#FDB095"/>
<path d="M9.83984 15.6621C8.23177 15.1999 7.0599 14.6335 6.32422 13.9629C5.59505 13.2858 5.23047 12.4525 5.23047 11.4629C5.23047 10.3431 5.67643 9.41862 6.56836 8.68945C7.4668 7.95378 8.63216 7.58594 10.0645 7.58594C11.041 7.58594 11.9102 7.77474 12.6719 8.15234C13.4401 8.52995 14.0326 9.05078 14.4492 9.71484C14.8724 10.3789 15.084 11.1048 15.084 11.8926H13.1992C13.1992 11.0332 12.9258 10.3594 12.3789 9.87109C11.832 9.3763 11.0605 9.12891 10.0645 9.12891C9.13997 9.12891 8.41732 9.33398 7.89648 9.74414C7.38216 10.1478 7.125 10.7109 7.125 11.4336C7.125 12.013 7.36914 12.5046 7.85742 12.9082C8.35221 13.3053 9.1888 13.6699 10.3672 14.002C11.5521 14.334 12.4766 14.7018 13.1406 15.1055C13.8112 15.5026 14.306 15.9681 14.625 16.502C14.9505 17.0358 15.1133 17.6641 15.1133 18.3867C15.1133 19.5391 14.6641 20.4635 13.7656 21.1602C12.8672 21.8503 11.666 22.1953 10.1621 22.1953C9.18555 22.1953 8.27409 22.0098 7.42773 21.6387C6.58138 21.2611 5.92708 20.7467 5.46484 20.0957C5.00911 19.4447 4.78125 18.7057 4.78125 17.8789H6.66602C6.66602 18.7383 6.98177 19.4186 7.61328 19.9199C8.2513 20.4147 9.10091 20.6621 10.1621 20.6621C11.1517 20.6621 11.9102 20.4603 12.4375 20.0566C12.9648 19.653 13.2285 19.1029 13.2285 18.4062C13.2285 17.7096 12.9844 17.1725 12.4961 16.7949C12.0078 16.4108 11.1224 16.0332 9.83984 15.6621Z" fill="white"/>
<path d="M33.4746 9.32422H28.9043V22H27.0391V9.32422H22.4785V7.78125H33.4746V9.32422Z" fill="white"/>
<path d="M51.6602 7.78125V17.4492C51.6536 18.7904 51.2305 19.8874 50.3906 20.7402C49.5573 21.5931 48.4245 22.0716 46.9922 22.1758L46.4941 22.1953C44.9382 22.1953 43.6979 21.7754 42.7734 20.9355C41.849 20.0957 41.3802 18.9401 41.3672 17.4688V7.78125H43.2227V17.4102C43.2227 18.4388 43.5059 19.2396 44.0723 19.8125C44.6387 20.3789 45.446 20.6621 46.4941 20.6621C47.5553 20.6621 48.3659 20.3789 48.9258 19.8125C49.4922 19.2461 49.7754 18.4486 49.7754 17.4199V7.78125H51.6602Z" fill="white"/>
<path d="M6.65039 45V30.7812H10.6641C11.901 30.7812 12.9948 31.0547 13.9453 31.6016C14.8958 32.1484 15.6283 32.9264 16.1426 33.9355C16.6634 34.9447 16.9271 36.1035 16.9336 37.4121V38.3203C16.9336 39.6615 16.6732 40.8366 16.1523 41.8457C15.638 42.8548 14.8991 43.6296 13.9355 44.1699C12.9785 44.7103 11.862 44.987 10.5859 45H6.65039ZM8.52539 32.3242V43.4668H10.498C11.9434 43.4668 13.0664 43.0176 13.8672 42.1191C14.6745 41.2207 15.0781 39.9414 15.0781 38.2812V37.4512C15.0781 35.8366 14.6973 34.5833 13.9355 33.6914C13.1803 32.793 12.1061 32.3372 10.7129 32.3242H8.52539Z" fill="white"/>
<path d="M27.9863 37.9199L31.6973 30.7812H33.8262L28.9238 39.6973V45H27.0488V39.6973L22.1465 30.7812H24.2949L27.9863 37.9199Z" fill="white"/>
<path d="M44.9018 27.1685C43.8039 27.1742 42.9149 28.1551 42.9149 29.3641C42.9149 30.0484 43.202 30.5742 43.5087 31.0895C43.7922 31.5652 43.4363 32.1889 42.9227 32.1187C41.4063 31.9123 39.8714 31.5926 39.8714 31.5926L39.8701 31.5941C39.7775 31.5716 39.683 31.5601 39.5881 31.5598C39.2352 31.5598 38.8968 31.714 38.6472 31.9885C38.3976 32.263 38.2574 32.6353 38.2574 33.0235V36.5557C38.2574 37.2217 38.9271 37.6355 39.4361 37.2747C39.9238 36.9285 40.4313 36.6249 41.1073 36.6929C41.9423 36.7764 42.674 37.4609 42.8616 38.3597C43.1597 39.7978 42.175 41.0742 40.9188 41.0742C40.34 41.0742 39.8856 40.7999 39.4478 40.4896C38.9335 40.1251 38.2574 40.526 38.2574 41.1986V42.9525C38.2574 44.0811 38.8529 44.7336 39.5881 44.7336H44.9109H50.2337C50.9689 44.7336 51.5644 44.0786 51.5644 43.2698V33.0235C51.5644 32.6353 51.4242 32.263 51.1746 31.9885C50.9251 31.714 50.5866 31.5598 50.2337 31.5598C50.1393 31.5602 50.0452 31.5717 49.953 31.5941L49.9504 31.5926C49.9504 31.5926 48.4155 31.9123 46.8992 32.1187C46.3842 32.1889 46.0309 31.5631 46.3157 31.0852C46.653 30.5187 46.9657 29.9372 46.8979 29.1483C46.8193 28.2327 46.197 27.432 45.3826 27.2271C45.2192 27.1859 45.0587 27.1677 44.9018 27.1685Z" fill="#FDB095"/>
</svg>
